<?xml version="1.0" encoding="UTF-8"?>
<svg width="30px" height="30px" viewBox="0 0 30 30" version="1.1" xmlns="http://www.w3.org/2000/svg" xmlns:xlink="http://www.w3.org/1999/xlink">
    <!-- Generator: Sketch 48.1 (47250) - http://www.bohemiancoding.com/sketch -->
    <title>bitcointalk</title>
    <desc>Created with Sketch.</desc>
    <defs></defs>
    <g id="Page-1" stroke="none" stroke-width="1" fill="none" fill-rule="evenodd">
        <g id="bitcointalk">
            <circle id="Oval-Copy-33" stroke="#FAFAFA" cx="15" cy="15" r="14.5"></circle>
            <path d="M13.7359105,14.0056495 C14.2110393,13.9871927 14.6437978,13.9801882 15.0750116,13.9508386 C15.5176769,13.9206899 15.9537643,13.853388 16.3609833,13.654705 C16.8159256,13.432718 17.1162733,13.1097649 17.1416796,12.576863 C17.1671124,12.0434551 16.9537159,11.6386052 16.4777615,11.4062846 C16.2188788,11.2799371 15.9332848,11.173884 15.6499812,11.1397138 C15.1686206,11.0816536 14.6796435,11.0844767 14.1936491,11.0684968 C14.0388148,11.0633833 13.8832614,11.079736 13.7036867,11.0872732 C13.7144723,12.0654274 13.7249118,13.0100239 13.7359105,14.0056495 M13.7938602,18.8182791 C13.8959646,18.8243781 13.9736747,18.8330073 14.0513315,18.8329274 C14.7429195,18.832448 15.4317377,18.8117274 16.1177598,18.698803 C16.5467632,18.6281986 16.9384029,18.4823557 17.3059414,18.2614873 C18.1797938,17.7364156 18.0188876,16.4927292 17.300402,16.0746959 C17.028177,15.9163088 16.7443407,15.802106 16.4385603,15.7337921 C15.6508866,15.5578005 14.8530132,15.5785744 14.0547669,15.6061396 C13.7629679,15.6162602 13.7528746,15.6250758 13.7557508,15.9088516 C13.7628614,16.6090893 13.7734074,17.3093004 13.7826484,18.0095115 C13.7861638,18.2733657 13.7899454,18.53714 13.7938602,18.8182791 M12.0358223,9.26580813 C12.0308156,8.76214939 12.0258622,8.29396594 12.0216278,7.82580913 C12.0190712,7.54229967 12.0188315,7.25873695 12.0151031,6.97522749 C12.0137183,6.87133173 12.0467411,6.79968866 12.1623209,6.79857007 C12.6054123,6.79430877 13.048477,6.79084647 13.4915418,6.79010074 C13.5235526,6.79004747 13.5555901,6.81439014 13.6126343,6.83750768 C13.624352,7.61122616 13.6360964,8.38768786 13.6482403,9.19091583 C14.0143939,9.20929267 14.3546885,9.19696154 14.7198035,9.16974251 C14.7290445,9.09719391 14.7450766,9.03079757 14.7447304,8.96448112 C14.7412683,8.33538043 14.7345306,7.70630636 14.7301098,7.0771524 C14.7295239,6.99043499 14.7363682,6.90363769 14.7399367,6.81289868 C14.8156229,6.79308365 14.8741584,6.76554501 14.9332533,6.76426662 C15.3232419,6.75585056 15.7133636,6.74868625 16.1034055,6.75020434 C16.3002906,6.7509767 16.3285198,6.78365553 16.3319286,6.99008876 C16.3425545,7.62816482 16.3480671,8.26632077 16.3570153,8.90442346 C16.3615159,9.22766952 16.3623948,9.23227705 16.6721966,9.26487597 C17.2747827,9.32820951 17.8655713,9.43737863 18.4277578,9.67436004 C19.5314916,10.1396405 20.0845702,10.9881714 20.0723997,12.2214175 C20.0640375,13.0682705 19.7428375,13.7542862 19.0186528,14.2268907 C18.9964956,14.2413525 18.9770281,14.260049 18.9571878,14.27776 C18.9507963,14.2834595 18.9473076,14.2923816 18.9232063,14.3297478 C19.0338593,14.3671673 19.1385735,14.4012044 19.2423823,14.437825 C19.8464598,14.6509964 20.3534663,14.9877987 20.6726956,15.5633402 C20.9113652,15.9937046 20.9979701,16.4612223 20.9999408,16.9462378 C21.0028969,17.6748132 20.8958391,18.377661 20.5034804,19.0135797 C20.1319739,19.6156212 19.5775371,19.9785506 18.938253,20.2347078 C18.2045343,20.528764 17.4306823,20.6184643 16.6519302,20.683822 C16.6177089,20.6866717 16.5843932,20.7006807 16.5179748,20.7180988 C16.5112371,20.8020996 16.4968562,20.8949426 16.4974687,20.9877058 C16.5017563,21.6172326 16.5100653,22.2467594 16.5147524,22.8763129 C16.5154448,22.9714464 16.5039933,23.0666864 16.4981078,23.1637374 C16.4483606,23.1814484 16.4161101,23.2025152 16.3835134,23.2030212 C15.9671332,23.2097594 15.5506997,23.21727 15.1343195,23.2164177 C14.9385263,23.2160182 14.9114689,23.1861359 14.9079802,22.9773589 C14.8980733,22.383334 14.8957564,21.789176 14.8865154,21.1951777 C14.8793782,20.7328269 14.9451841,20.7577555 14.4327448,20.7571962 C14.2297878,20.7570364 14.0268573,20.7612444 13.7910905,20.7638012 C13.7865632,20.8847422 13.7779081,20.9956158 13.7790266,21.1064362 C13.7852317,21.7088239 13.7946325,22.3111849 13.8007044,22.9135726 C13.8016365,23.0085995 13.7910639,23.103733 13.7845659,23.2219308 C13.2546831,23.2512005 12.74765,23.2595367 12.2025341,23.2375644 C12.1897778,22.4061852 12.1775007,21.6037829 12.164771,20.7726967 C12.0639982,20.7648133 11.9794438,20.7519228 11.894996,20.752562 C11.0971492,20.7585545 10.2993557,20.7674233 9.50148227,20.7738952 C9.39711425,20.7747741 9.2926397,20.7669439 9.15847126,20.7620434 C9.16036209,20.655005 9.15271891,20.5690333 9.1649693,20.4859646 C9.230935,20.0384485 9.30006983,19.5913584 9.371708,19.1447212 C9.41367891,18.883184 9.42411837,18.8762861 9.69676951,18.8711991 C9.94497313,18.8665916 10.1933365,18.8680032 10.4414336,18.8612117 C10.9030604,18.848561 11.0654047,18.6837819 11.0602915,18.2247869 C11.0365098,16.080715 11.0113698,13.9366697 10.9843657,11.7926511 C10.978347,11.3153858 10.7299037,11.0455125 10.2552809,11.0180271 C9.95511965,11.0006889 9.65306757,11.0161894 9.35189432,11.0161361 C9.25652767,11.0161095 9.16121429,11.0134462 9.02795132,11.0114221 C8.99428937,10.4481052 8.99996183,9.90529574 9.00100045,9.33321654 C10.0197005,9.27417093 11.010278,9.32533314 12.0358223,9.26580813" id="Fill-1" fill="#FFFFFF"></path>
        </g>
    </g>
</svg>