<?xml version="1.0" encoding="UTF-8"?>
<svg width="26px" height="26px" viewBox="0 0 26 26" version="1.1" xmlns="http://www.w3.org/2000/svg" xmlns:xlink="http://www.w3.org/1999/xlink">
    <!-- Generator: Sketch 48.1 (47250) - http://www.bohemiancoding.com/sketch -->
    <title>cancel</title>
    <desc>Created with Sketch.</desc>
    <defs></defs>
    <g id="Page-1" stroke="none" stroke-width="1" fill="none" fill-rule="evenodd">
        <g id="cancel" fill="#646464" fill-rule="nonzero">
            <path d="M22.1546218,3.80168067 C19.7021008,1.34915966 16.4466387,0 12.9781513,0 C9.50966387,0 6.25420168,1.34915966 3.80168067,3.80168067 C1.34915966,6.25420168 0,9.50966387 0,12.9781513 C0,16.4466387 1.34915966,19.7021008 3.80168067,22.1546218 C6.25420168,24.6071429 9.50966387,25.9563025 12.9781513,25.9563025 C16.4466387,25.9563025 19.7021008,24.6071429 22.1546218,22.1546218 C24.6071429,19.7021008 25.9563025,16.4466387 25.9563025,12.9781513 C25.9563025,9.50966387 24.6071429,6.25420168 22.1546218,3.80168067 Z M21.1113445,21.1113445 C18.937395,23.2852941 16.0478992,24.4815126 12.9781513,24.4815126 C9.90840336,24.4815126 7.01890756,23.2852941 4.84495798,21.1113445 C0.360504202,16.6268908 0.360504202,9.32941176 4.84495798,4.84495798 C7.01890756,2.6710084 9.90840336,1.47478992 12.9781513,1.47478992 C16.0478992,1.47478992 18.937395,2.6710084 21.1113445,4.84495798 C25.5957983,9.32941176 25.5957983,16.6268908 21.1113445,21.1113445 Z" id="Shape"></path>
            <path d="M18.6970588,7.2592437 C18.407563,6.9697479 17.9432773,6.9697479 17.6537815,7.2592437 L12.9781513,11.9348739 L8.30252101,7.2592437 C8.01302521,6.9697479 7.5487395,6.9697479 7.2592437,7.2592437 C6.9697479,7.5487395 6.9697479,8.01302521 7.2592437,8.30252101 L11.9348739,12.9781513 L7.2592437,17.6537815 C6.9697479,17.9432773 6.9697479,18.407563 7.2592437,18.6970588 C7.4012605,18.8390756 7.59243697,18.9155462 7.77815126,18.9155462 C7.96386555,18.9155462 8.15504202,18.8445378 8.29705882,18.6970588 L12.9726891,14.0214286 L17.6483193,18.6970588 C17.7903361,18.8390756 17.9815126,18.9155462 18.1672269,18.9155462 C18.3584034,18.9155462 18.5441176,18.8445378 18.6861345,18.6970588 C18.9756303,18.407563 18.9756303,17.9432773 18.6861345,17.6537815 L14.0214286,12.9781513 L18.6970588,8.30252101 C18.9865546,8.01302521 18.9865546,7.5487395 18.6970588,7.2592437 Z" id="Shape"></path>
        </g>
    </g>
</svg>