<?xml version="1.0" encoding="UTF-8"?>
<svg width="17px" height="26px" viewBox="0 0 17 26" version="1.1" xmlns="http://www.w3.org/2000/svg" xmlns:xlink="http://www.w3.org/1999/xlink">
    <!-- Generator: Sketch 48.1 (47250) - http://www.bohemiancoding.com/sketch -->
    <title>document_little</title>
    <desc>Created with Sketch.</desc>
    <defs></defs>
    <g id="Page-1" stroke="none" stroke-width="1" fill="none" fill-rule="evenodd">
        <g id="document_little" fill="#3C0062" fill-rule="nonzero">
            <g id="Group">
                <path d="M16.8583333,7.93720621 C16.8347222,7.91241685 16.8347222,7.88762749 16.8111111,7.86283814 L12.7972222,3.12807095 C12.7736111,3.1032816 12.7263889,3.07849224 12.7027778,3.05370288 C12.6791667,3.05370288 12.6791667,3.02891353 12.6555556,3.02891353 C12.6083333,3.00412417 12.5375,2.97933481 12.4902778,2.97933481 L9.79861111,2.97933481 C9.5625,2.97933481 9.35,3.17764967 9.35,3.45033259 C9.35,3.69822616 9.53888889,3.92133038 9.79861111,3.92133038 L12.0652778,3.92133038 L12.0652778,8.18509978 C12.0652778,8.43299335 12.2541667,8.65609756 12.5138889,8.65609756 L16.0791667,8.65609756 L16.0791667,22.6868736 C16.0791667,23.7032373 15.3,24.521286 14.3319444,24.521286 L2.64444444,24.521286 C1.67638889,24.521286 0.897222222,23.7032373 0.897222222,22.6868736 L0.897222222,5.73095344 C0.897222222,4.7145898 1.67638889,3.89654102 2.64444444,3.89654102 C2.88055556,3.89654102 3.09305556,3.69822616 3.09305556,3.42554324 C3.09305556,3.17764967 2.90416667,2.95454545 2.64444444,2.95454545 C1.18055556,2.95454545 0,4.1940133 0,5.73095344 L0,22.6868736 C0,24.2238137 1.18055556,25.4632816 2.64444444,25.4632816 L14.2847222,25.4632816 C15.7486111,25.4632816 16.9291667,24.2238137 16.9291667,22.6868736 L16.9291667,8.16031042 C16.9291667,8.11073171 16.9055556,8.03636364 16.9055556,7.98678492 C16.8819444,7.96199557 16.8819444,7.96199557 16.8583333,7.93720621 Z M12.9152778,7.714102 L12.9152778,4.64022173 L15.5125,7.68931264 L12.9152778,7.68931264 L12.9152778,7.714102 Z" id="Shape"></path>
                <path d="M8.33944444,0.842838137 C7.84361111,0.272682927 7.15888889,0 6.30888889,0 C5.43527778,0 4.75055556,0.297472284 4.23111111,0.867627494 C3.28666667,1.9583592 3.40472222,3.66882483 3.40472222,3.71840355 L3.40472222,8.97374723 C3.40472222,9.2216408 3.59361111,9.44474501 3.85333333,9.44474501 C4.08944444,9.44474501 4.30194444,9.24643016 4.30194444,8.97374723 L4.30194444,3.69361419 C4.30194444,3.66882483 4.2075,2.3054102 4.89222222,1.51215078 C5.22277778,1.11552106 5.695,0.941995565 6.30888889,0.941995565 C6.89916667,0.941995565 7.34777778,1.11552106 7.70194444,1.48736142 C8.41027778,2.28062084 8.33944444,3.66882483 8.33944444,3.71840355 L8.33944444,9.29600887 C8.33944444,9.29600887 8.33944444,10.2132151 7.89083333,10.6842129 C7.70194444,10.8825277 7.46583333,10.9816851 7.13527778,10.9816851 C6.78111111,10.9816851 6.52138889,10.8825277 6.30888889,10.6594235 C5.88388889,10.1884257 5.93111111,9.32079823 5.93111111,9.27121951 L5.93111111,3.29698448 C5.93111111,3.04909091 5.74222222,2.8259867 5.4825,2.8259867 C5.24638889,2.8259867 5.03388889,3.02430155 5.03388889,3.29698448 L5.03388889,9.24643016 C5.03388889,9.29600887 4.96305556,10.5106874 5.64777778,11.2791574 C6.00194444,11.7005765 6.49777778,11.8988914 7.11166667,11.8988914 C7.67833333,11.8988914 8.12694444,11.7005765 8.50472222,11.3287361 C9.21305556,10.5602661 9.18944444,9.32079823 9.18944444,9.29600887 L9.18944444,3.76798226 C9.21305556,3.66882483 9.3075,1.93356984 8.33944444,0.842838137 Z" id="Shape"></path>
            </g>
        </g>
    </g>
</svg>