<?xml version="1.0" encoding="UTF-8"?>
<svg width="30px" height="44px" viewBox="0 0 30 44" version="1.1" xmlns="http://www.w3.org/2000/svg" xmlns:xlink="http://www.w3.org/1999/xlink">
    <!-- Generator: Sketch 48.1 (47250) - http://www.bohemiancoding.com/sketch -->
    <title>document_big</title>
    <desc>Created with Sketch.</desc>
    <defs></defs>
    <g id="Page-1" stroke="none" stroke-width="1" fill="none" fill-rule="evenodd">
        <g id="document_big" fill="#3C0062" fill-rule="nonzero">
            <g id="Group">
                <path d="M29.75,13.4321951 C29.7083333,13.3902439 29.7083333,13.3482927 29.6666667,13.3063415 L22.5833333,5.29365854 C22.5416667,5.25170732 22.4583333,5.2097561 22.4166667,5.16780488 C22.375,5.16780488 22.375,5.12585366 22.3333333,5.12585366 C22.25,5.08390244 22.125,5.04195122 22.0416667,5.04195122 L17.2916667,5.04195122 C16.875,5.04195122 16.5,5.37756098 16.5,5.83902439 C16.5,6.25853659 16.8333333,6.63609756 17.2916667,6.63609756 L21.2916667,6.63609756 L21.2916667,13.8517073 C21.2916667,14.2712195 21.625,14.6487805 22.0833333,14.6487805 L28.375,14.6487805 L28.375,38.3931707 C28.375,40.1131707 27,41.497561 25.2916667,41.497561 L4.66666667,41.497561 C2.95833333,41.497561 1.58333333,40.1131707 1.58333333,38.3931707 L1.58333333,9.69853659 C1.58333333,7.97853659 2.95833333,6.59414634 4.66666667,6.59414634 C5.08333333,6.59414634 5.45833333,6.25853659 5.45833333,5.79707317 C5.45833333,5.37756098 5.125,5 4.66666667,5 C2.08333333,5 0,7.09756098 0,9.69853659 L0,38.3931707 C0,40.9941463 2.08333333,43.0917073 4.66666667,43.0917073 L25.2083333,43.0917073 C27.7916667,43.0917073 29.875,40.9941463 29.875,38.3931707 L29.875,13.8097561 C29.875,13.7258537 29.8333333,13.6 29.8333333,13.5160976 C29.7916667,13.4741463 29.7916667,13.4741463 29.75,13.4321951 Z M22.7916667,13.0546341 L22.7916667,7.85268293 L27.375,13.0126829 L22.7916667,13.0126829 L22.7916667,13.0546341 Z" id="Shape"></path>
                <path d="M14.7166667,1.42634146 C13.8416667,0.461463415 12.6333333,0 11.1333333,0 C9.59166667,0 8.38333333,0.503414634 7.46666667,1.46829268 C5.8,3.31414634 6.00833333,6.20878049 6.00833333,6.29268293 L6.00833333,15.1863415 C6.00833333,15.6058537 6.34166667,15.9834146 6.8,15.9834146 C7.21666667,15.9834146 7.59166667,15.6478049 7.59166667,15.1863415 L7.59166667,6.25073171 C7.59166667,6.20878049 7.425,3.90146341 8.63333333,2.55902439 C9.21666667,1.88780488 10.05,1.59414634 11.1333333,1.59414634 C12.175,1.59414634 12.9666667,1.88780488 13.5916667,2.51707317 C14.8416667,3.8595122 14.7166667,6.20878049 14.7166667,6.29268293 L14.7166667,15.7317073 C14.7166667,15.7317073 14.7166667,17.2839024 13.925,18.0809756 C13.5916667,18.4165854 13.175,18.5843902 12.5916667,18.5843902 C11.9666667,18.5843902 11.5083333,18.4165854 11.1333333,18.0390244 C10.3833333,17.2419512 10.4666667,15.7736585 10.4666667,15.6897561 L10.4666667,5.5795122 C10.4666667,5.16 10.1333333,4.78243902 9.675,4.78243902 C9.25833333,4.78243902 8.88333333,5.11804878 8.88333333,5.5795122 L8.88333333,15.6478049 C8.88333333,15.7317073 8.75833333,17.7873171 9.96666667,19.0878049 C10.5916667,19.8009756 11.4666667,20.1365854 12.55,20.1365854 C13.55,20.1365854 14.3416667,19.8009756 15.0083333,19.1717073 C16.2583333,17.8712195 16.2166667,15.7736585 16.2166667,15.7317073 L16.2166667,6.37658537 C16.2583333,6.20878049 16.425,3.27219512 14.7166667,1.42634146 Z" id="Shape"></path>
            </g>
        </g>
    </g>
</svg>