<?xml version="1.0" encoding="UTF-8"?>
<svg width="18px" height="20px" viewBox="0 0 18 20" version="1.1" xmlns="http://www.w3.org/2000/svg" xmlns:xlink="http://www.w3.org/1999/xlink">
    <!-- Generator: Sketch 48.1 (47250) - http://www.bohemiancoding.com/sketch -->
    <title>garbage</title>
    <desc>Created with Sketch.</desc>
    <defs></defs>
    <g id="Page-1" stroke="none" stroke-width="1" fill="none" fill-rule="evenodd">
        <g id="garbage" fill="#D0021B" fill-rule="nonzero">
            <path d="M17.4193548,2.87474333 L13.2221198,2.87474333 L13.2221198,2.19712526 C13.2221198,0.985626283 12.2267281,0 11.0032258,0 L7.01336406,0 C5.78986175,0 4.79447005,0.985626283 4.79447005,2.19712526 L4.79447005,2.87474333 L0.597235023,2.87474333 C0.286175115,2.87474333 0.0373271889,3.1211499 0.0373271889,3.42915811 C0.0373271889,3.73716632 0.286175115,3.9835729 0.597235023,3.9835729 L1.60921659,3.9835729 L1.60921659,17.0102669 C1.60921659,18.6447639 2.95299539,19.9753593 4.60368664,19.9753593 L13.4129032,19.9753593 C15.0635945,19.9753593 16.4073733,18.6447639 16.4073733,17.0102669 L16.4073733,3.9835729 L17.4193548,3.9835729 C17.7304147,3.9835729 17.9792627,3.73716632 17.9792627,3.42915811 C17.9792627,3.1211499 17.7304147,2.87474333 17.4193548,2.87474333 Z M5.91428571,2.19712526 C5.91428571,1.59753593 6.4078341,1.10882957 7.01336406,1.10882957 L11.0032258,1.10882957 C11.6087558,1.10882957 12.1023041,1.59753593 12.1023041,2.19712526 L12.1023041,2.87474333 L5.91428571,2.87474333 L5.91428571,2.19712526 Z M15.2875576,17.0102669 C15.2875576,18.0328542 14.4456221,18.8665298 13.4129032,18.8665298 L4.60368664,18.8665298 C3.57096774,18.8665298 2.72903226,18.0328542 2.72903226,17.0102669 L2.72903226,3.9835729 L15.2917051,3.9835729 L15.2917051,17.0102669 L15.2875576,17.0102669 Z" id="Shape"></path>
            <path d="M9.00829493,16.8788501 C9.31935484,16.8788501 9.56820276,16.6324435 9.56820276,16.3244353 L9.56820276,6.52566735 C9.56820276,6.21765914 9.31935484,5.97125257 9.00829493,5.97125257 C8.69723502,5.97125257 8.4483871,6.21765914 8.4483871,6.52566735 L8.4483871,16.3203285 C8.4483871,16.6283368 8.69723502,16.8788501 9.00829493,16.8788501 Z" id="Shape"></path>
            <path d="M5.35437788,16.2669405 C5.66543779,16.2669405 5.91428571,16.0205339 5.91428571,15.7125257 L5.91428571,7.13347023 C5.91428571,6.82546201 5.66543779,6.57905544 5.35437788,6.57905544 C5.04331797,6.57905544 4.79447005,6.82546201 4.79447005,7.13347023 L4.79447005,15.7125257 C4.79447005,16.0205339 5.04746544,16.2669405 5.35437788,16.2669405 Z" id="Shape"></path>
            <path d="M12.662212,16.2669405 C12.9732719,16.2669405 13.2221198,16.0205339 13.2221198,15.7125257 L13.2221198,7.13347023 C13.2221198,6.82546201 12.9732719,6.57905544 12.662212,6.57905544 C12.3511521,6.57905544 12.1023041,6.82546201 12.1023041,7.13347023 L12.1023041,15.7125257 C12.1023041,16.0205339 12.3511521,16.2669405 12.662212,16.2669405 Z" id="Shape"></path>
        </g>
    </g>
</svg>