<?xml version="1.0" encoding="UTF-8"?>
<svg width="36px" height="36px" viewBox="0 0 36 36" version="1.1" xmlns="http://www.w3.org/2000/svg" xmlns:xlink="http://www.w3.org/1999/xlink">
    <!-- Generator: Sketch 48.1 (47250) - http://www.bohemiancoding.com/sketch -->
    <title>like</title>
    <desc>Created with Sketch.</desc>
    <defs></defs>
    <g id="Page-1" stroke="none" stroke-width="1" fill="none" fill-rule="evenodd">
        <g id="like">
            <circle id="Oval" fill="#3C0062" cx="18" cy="18" r="18"></circle>
            <g transform="translate(10.000000, 8.000000)" fill="#FFFFFF" fill-rule="nonzero" id="Shape">
                <path d="M16.4898007,12.2371393 C16.8481951,11.7666248 17.0200781,11.2622334 16.9981356,10.7427854 C16.9761931,10.1706399 16.7275113,9.72271016 16.5227145,9.44792974 C16.760425,8.83814304 16.8518522,7.8782936 16.0582645,7.13299875 C15.4767879,6.58720201 14.4893746,6.3425345 13.1216245,6.41028858 C12.1598109,6.45545797 11.355252,6.63989962 11.3223382,6.64742785 L11.3186811,6.64742785 C11.1358268,6.68130489 10.9420012,6.72271016 10.7445186,6.76787955 C10.7298903,6.52697616 10.7701182,5.92848181 11.2016544,4.58092848 C11.7136464,2.97741531 11.6843897,1.75031368 11.1065701,0.929736512 C10.4994938,0.0677540778 9.53036606,0 9.24511335,0 C8.97083191,0 8.71849297,0.116687578 8.53929576,0.331242158 C8.13335922,0.816813049 8.18090133,1.71267252 8.23210054,2.12672522 C7.74936519,3.45922208 6.39624338,6.72647428 5.25157546,7.6336261 C5.22963295,7.64868256 5.21134752,7.66750314 5.19306209,7.68632371 C4.85661018,8.05144291 4.62987085,8.44667503 4.47627324,8.79297365 C4.26050516,8.67252196 4.0154804,8.60476788 3.75217021,8.60476788 L1.52134777,8.60476788 C0.680217992,8.60476788 0,9.30865747 0,10.1706399 L0,16.2873275 C0,17.153074 0.683875078,17.8531995 1.52134777,17.8531995 L3.75217021,17.8531995 C4.07765087,17.8531995 4.381189,17.7478043 4.62987085,17.5671267 L5.48928605,17.672522 C5.62094115,17.6913425 7.96147617,17.9962359 10.3641817,17.9473024 C10.7993749,17.9811794 11.2089685,18 11.5893055,18 C12.2439239,18 12.8144293,17.9473024 13.2898504,17.8419072 C14.4089188,17.5972396 15.1732497,17.1079046 15.5609008,16.3889586 C15.8571248,15.8393977 15.8571248,15.293601 15.8095827,14.9473024 C16.5373428,14.2697616 16.6653408,13.5207026 16.6397412,12.9937265 C16.6251129,12.6888331 16.5592853,12.4291092 16.4898007,12.2371393 Z M1.52134777,16.8368883 C1.2251238,16.8368883 0.987413214,16.5884567 0.987413214,16.2873275 L0.987413214,10.1668758 C0.987413214,9.86198243 1.22878089,9.61731493 1.52134777,9.61731493 L3.75217021,9.61731493 C4.04839418,9.61731493 4.28610477,9.86574655 4.28610477,10.1668758 L4.28610477,16.2835634 C4.28610477,16.5884567 4.04473709,16.8331242 3.75217021,16.8331242 L1.52134777,16.8331242 L1.52134777,16.8368883 Z M15.5535867,11.7967378 C15.3999891,11.9623588 15.3707324,12.2145546 15.4877591,12.4102886 C15.4877591,12.4140527 15.6376996,12.6775408 15.6559851,13.0388959 C15.6815847,13.531995 15.4511883,13.9686324 14.9684529,14.3412798 C14.7965699,14.476788 14.7270852,14.7101631 14.800227,14.9209536 C14.800227,14.9247177 14.9574817,15.4215809 14.7014856,15.8920954 C14.4564609,16.3437892 13.9115551,16.6675031 13.0850536,16.8481807 C12.4231211,16.9949812 11.5234779,17.02133 10.419038,16.9309912 C10.4044096,16.9309912 10.3861242,16.9309912 10.3678387,16.9309912 C8.01633246,16.9836888 5.63922658,16.6675031 5.61362698,16.663739 L5.60996989,16.663739 L5.24060421,16.6185696 C5.26254672,16.5131744 5.27351798,16.4002509 5.27351798,16.2873275 L5.27351798,10.1668758 C5.27351798,10.0050188 5.24791838,9.84692597 5.20403335,9.70012547 C5.26986089,9.44792974 5.45271519,8.88707654 5.88425134,8.40903388 C7.52628294,7.06900878 9.13174369,2.54830615 9.20122832,2.35257215 C9.23048501,2.27352572 9.23779918,2.18695107 9.22317084,2.10037641 C9.16100038,1.67879548 9.18294289,1.16311167 9.27071296,1.00878294 C9.46453851,1.01254705 9.98750181,1.06900878 10.3020112,1.51693852 C10.675034,2.0476788 10.6604056,2.99623588 10.2581262,4.25345044 C9.64373573,6.16938519 9.59253652,7.17816813 10.078929,7.62233375 C10.3202966,7.84441656 10.6421202,7.85570891 10.8761737,7.76913425 C11.0992559,7.71643664 11.3113669,7.67126725 11.5125067,7.63739021 C11.527135,7.6336261 11.5454204,7.62986198 11.5600488,7.62609787 C12.6827742,7.37390213 14.6941715,7.2195734 15.3926749,7.87452949 C15.9851228,8.43161857 15.5645579,9.16938519 15.5170158,9.24843162 C15.3817036,9.45922208 15.4219316,9.73400251 15.6047859,9.9033877 C15.608443,9.90715182 15.992437,10.2797992 16.0107224,10.7804266 C16.0253508,11.1154329 15.8717531,11.4579674 15.5535867,11.7967378 Z"></path>
            </g>
        </g>
    </g>
</svg>