<?xml version="1.0" encoding="UTF-8"?>
<svg width="26px" height="26px" viewBox="0 0 26 26" version="1.1" xmlns="http://www.w3.org/2000/svg" xmlns:xlink="http://www.w3.org/1999/xlink">
    <!-- Generator: Sketch 48.1 (47250) - http://www.bohemiancoding.com/sketch -->
    <title>ok</title>
    <desc>Created with Sketch.</desc>
    <defs></defs>
    <g id="Page-1" stroke="none" stroke-width="1" fill="none" fill-rule="evenodd">
        <g id="ok">
            <polyline id="Path-6" stroke="#7ED321" stroke-width="1.5" stroke-linecap="round" stroke-linejoin="round" points="7.3501029 11.8501123 12.1566748 16.8038457 19.3501029 9.61041766"></polyline>
            <path d="M22.1546218,3.80168067 C19.7021008,1.34915966 16.4466387,0 12.9781513,0 C9.50966387,0 6.25420168,1.34915966 3.80168067,3.80168067 C1.34915966,6.25420168 0,9.50966387 0,12.9781513 C0,16.4466387 1.34915966,19.7021008 3.80168067,22.1546218 C6.25420168,24.6071429 9.50966387,25.9563025 12.9781513,25.9563025 C16.4466387,25.9563025 19.7021008,24.6071429 22.1546218,22.1546218 C24.6071429,19.7021008 25.9563025,16.4466387 25.9563025,12.9781513 C25.9563025,9.50966387 24.6071429,6.25420168 22.1546218,3.80168067 Z M21.1113445,21.1113445 C18.937395,23.2852941 16.0478992,24.4815126 12.9781513,24.4815126 C9.90840336,24.4815126 7.01890756,23.2852941 4.84495798,21.1113445 C0.360504202,16.6268908 0.360504202,9.32941176 4.84495798,4.84495798 C7.01890756,2.6710084 9.90840336,1.47478992 12.9781513,1.47478992 C16.0478992,1.47478992 18.937395,2.6710084 21.1113445,4.84495798 C25.5957983,9.32941176 25.5957983,16.6268908 21.1113445,21.1113445 Z" id="Shape" fill="#7ED321" fill-rule="nonzero"></path>
        </g>
    </g>
</svg>