<?xml version="1.0" encoding="UTF-8"?>
<svg width="30px" height="30px" viewBox="0 0 30 30" version="1.1" xmlns="http://www.w3.org/2000/svg" xmlns:xlink="http://www.w3.org/1999/xlink">
    <!-- Generator: Sketch 48.1 (47250) - http://www.bohemiancoding.com/sketch -->
    <title>twitter</title>
    <desc>Created with Sketch.</desc>
    <defs></defs>
    <g id="Page-1" stroke="none" stroke-width="1" fill="none" fill-rule="evenodd">
        <g id="twitter">
            <circle id="Oval-Copy-30" stroke="#FAFAFA" cx="15" cy="15" r="14.5"></circle>
            <path d="M20.6314652,11.4402716 C21.2382462,11.0573582 21.7038371,10.4501924 21.9223455,9.72691161 C21.3542237,10.0823474 20.7264323,10.3393957 20.0566201,10.4785563 C19.522115,9.87582236 18.7581761,9.5 17.9127167,9.5 C16.2907122,9.5 14.9763002,10.8871745 14.9763002,12.5978753 C14.9763002,12.8407417 15.0006723,13.0774034 15.0510973,13.3034286 C12.6105268,13.1740181 10.4464534,11.941959 8.99673438,10.0663927 C8.74376891,10.5255341 8.59921721,11.0573582 8.59921721,11.6246372 C8.59921721,12.6989219 9.11775441,13.6473415 9.90606541,14.2039841 C9.42450656,14.1880294 8.97152187,14.047096 8.57484512,13.8166389 L8.57484512,13.8547529 C8.57484512,15.3562696 9.58670701,16.6087153 10.9322144,16.8923549 C10.6851318,16.9650375 10.4262834,17.0013788 10.15735,17.0013788 C9.96825626,17.0013788 9.78336455,16.982765 9.60519618,16.9464236 C9.97834126,18.17671 11.0633194,19.07372 12.3491572,19.0976521 C11.3431782,19.9290704 10.07667,20.4236668 8.70090765,20.4236668 C8.4639101,20.4236668 8.2294338,20.4103712 8,20.3811209 C9.30012486,21.259517 10.8439706,21.7727273 12.5029535,21.7727273 C17.9068338,21.7727273 20.8600586,17.0519021 20.8600586,12.957743 C20.8600586,12.8230142 20.8583778,12.6891718 20.8524948,12.5571021 C21.4264995,12.12012 21.9257072,11.574114 22.3181818,10.9527661 C21.7912405,11.199178 21.2247995,11.3658162 20.6314652,11.4402716 Z" id="Shape-Copy-2" fill="#FFFFFF"></path>
        </g>
    </g>
</svg>