<?xml version="1.0" encoding="UTF-8"?>
<svg width="17px" height="16px" viewBox="0 0 17 16" version="1.1" xmlns="http://www.w3.org/2000/svg" xmlns:xlink="http://www.w3.org/1999/xlink">
    <!-- Generator: Sketch 48.1 (47250) - http://www.bohemiancoding.com/sketch -->
    <title>linkedin</title>
    <desc>Created with Sketch.</desc>
    <defs></defs>
    <g id="desktop_desktop_17.-Добавление-и-редактирование-проекта-" stroke="none" stroke-width="1" fill="none" fill-rule="evenodd" transform="translate(-283.000000, -368.000000)">
        <g id="Team" transform="translate(185.000000, 250.000000)" fill="#BEBEBE" fill-rule="nonzero">
            <g id="linkedin" transform="translate(98.341014, 118.000000)">
                <path d="M3.55255522,4.70588235 L0.264197286,4.70588235 C0.118254705,4.70588235 0,4.82634046 0,4.97488214 L0,15.7310002 C0,15.8795957 0.118254705,16 0.264197286,16 L3.55255522,16 C3.6984978,16 3.81675251,15.8795957 3.81675251,15.7310002 L3.81675251,4.97488214 C3.81675251,4.82634046 3.6984978,4.70588235 3.55255522,4.70588235 Z" id="XMLID_802_"></path>
                <path d="M1.90914333,0 C0.856432048,0 0,0.844247647 0,1.88196298 C0,2.92013709 0.856432048,3.76470588 1.90914333,3.76470588 C2.9610178,3.76470588 3.81675251,2.92009121 3.81675251,1.88196298 C3.816799,0.844247647 2.9610178,0 1.90914333,0 Z" id="XMLID_803_"></path>
                <path d="M12.1249174,4.70588235 C10.8377811,4.70588235 9.8862942,5.27059349 9.30918135,5.91224619 L9.30918135,5.22981026 C9.30918135,5.08470393 9.19393386,4.96703169 9.0517026,4.96703169 L5.9826075,4.96703169 C5.84037625,4.96703169 5.72512876,5.08470393 5.72512876,5.22981026 L5.72512876,15.7371689 C5.72512876,15.8823278 5.84037625,15.9999474 5.9826075,15.9999474 L9.18033898,15.9999474 C9.32257024,15.9999474 9.43781772,15.8823278 9.43781772,15.7371689 L9.43781772,10.5384628 C9.43781772,8.78662326 9.90406023,8.10413477 11.1006154,8.10413477 C12.4037668,8.10413477 12.5073248,9.1982396 12.5073248,10.6285959 L12.5073248,15.7372214 C12.5073248,15.8823803 12.6225723,16 12.7648035,16 L15.9637194,16 C16.1059507,16 16.2211982,15.8823803 16.2211982,15.7372214 L16.2211982,9.97375171 C16.2211982,7.36882778 15.7345118,4.70588235 12.1249174,4.70588235 Z" id="XMLID_804_"></path>
            </g>
        </g>
    </g>
</svg>