<?xml version="1.0" encoding="UTF-8"?>
<svg width="17px" height="14px" viewBox="0 0 17 14" version="1.1" xmlns="http://www.w3.org/2000/svg" xmlns:xlink="http://www.w3.org/1999/xlink">
    <!-- Generator: Sketch 48.1 (47250) - http://www.bohemiancoding.com/sketch -->
    <title>twitter</title>
    <desc>Created with Sketch.</desc>
    <defs></defs>
    <g id="desktop_desktop_17.-Добавление-и-редактирование-проекта-" stroke="none" stroke-width="1" fill="none" fill-rule="evenodd" transform="translate(-246.000000, -370.000000)">
        <g id="Team" transform="translate(185.000000, 250.000000)" fill="#BEBEBE">
            <g id="twitter" transform="translate(60.829493, 120.000000)">
                <path d="M14.7433732,2.5881668 C15.4405655,2.18204659 15.9755302,1.53808282 16.2265967,0.770966861 C15.5738238,1.14794419 14.8524906,1.42057119 14.0828753,1.5681658 C13.4687281,0.928902501 12.5909611,0.53030303 11.619527,0.53030303 C9.75584135,0.53030303 8.24558,2.00154872 8.24558,3.81592838 C8.24558,4.07351389 8.27358357,4.32451874 8.33152199,4.56424248 C5.52730271,4.42698889 3.04077907,3.12025949 1.37504964,1.13102251 C1.08439193,1.61799074 0.918301804,2.18204659 0.918301804,2.78370617 C0.918301804,3.92309899 1.51410184,4.9289986 2.41987239,5.51937706 C1.86656053,5.50245538 1.34608043,5.35298058 0.890298237,5.10855638 L0.890298237,5.14898038 C0.890298237,6.74149808 2.0529291,8.06984961 3.59891913,8.3706794 C3.3150209,8.44776704 3.0176037,8.48631085 2.70859882,8.48631085 C2.49132977,8.48631085 2.27888891,8.4665689 2.07417318,8.42802508 C2.50291745,9.73287429 3.74955901,10.6842485 5.22698859,10.709631 C4.07111721,11.5914383 2.61589736,12.1160103 1.03514427,12.1160103 C0.762833724,12.1160103 0.493420095,12.1019089 0.229800307,12.0708858 C1.72364577,13.0025181 3.49752691,13.546832 5.40370076,13.546832 C11.6127675,13.546832 15.0060274,8.53989616 15.0060274,4.19760617 C15.0060274,4.05471203 15.0040961,3.91275797 14.9973366,3.7726841 C15.6568689,3.3092182 16.2304592,2.73012086 16.6814132,2.0711156 C16.0759568,2.33246148 15.4251152,2.50919898 14.7433732,2.5881668 Z" id="Shape-Copy-2"></path>
            </g>
        </g>
    </g>
</svg>