<?xml version="1.0" encoding="UTF-8"?>
<svg width="211px" height="40px" viewBox="0 0 211 40" version="1.1" xmlns="http://www.w3.org/2000/svg" xmlns:xlink="http://www.w3.org/1999/xlink">
    <!-- Generator: Sketch 48.1 (47250) - http://www.bohemiancoding.com/sketch -->
    <title>logo_service</title>
    <desc>Created with Sketch.</desc>
    <defs>
        <polygon id="path-1" points="3.41977309e-05 39.4916388 41.2281347 39.4916388 41.2281347 0.0490687052 3.41977309e-05 0.0490687052 3.41977309e-05 39.4916388"></polygon>
        <polygon id="path-3" points="0 39.5113846 210.935298 39.5113846 210.935298 0.0688007645 0 0.0688007645"></polygon>
    </defs>
    <g id="Page-1" stroke="none" stroke-width="1" fill="none" fill-rule="evenodd">
        <g id="logo_service">
            <g id="Group-3" transform="translate(0.000000, 0.019746)">
                <mask id="mask-2" fill="white">
                    <use xlink:href="#path-1"></use>
                </mask>
                <g id="Clip-2"></g>
                <path d="M18.4455379,23.3342746 L23.8956987,21.0345403 L18.4429389,18.7432684 L18.4455379,23.3342746 Z M20.614016,26.5805011 C17.5717175,26.5805011 15.104146,24.1007839 15.104146,21.0374987 C15.104146,17.9737319 17.5717175,15.4940835 20.614016,15.4940835 C23.6599395,15.4940835 26.1274426,17.9737319 26.1274426,21.0374987 C26.1274426,24.1007839 23.6599395,26.5805011 20.614016,26.5805011 L20.614016,26.5805011 Z M41.2281347,15.1135465 L25.4803532,15.1135465 L20.614016,0.0490687052 L15.7479525,15.1135465 L3.41977309e-05,15.1135465 L12.7416984,24.4268996 L7.87563485,39.4916526 L20.614016,30.1791251 L33.3557486,39.4916526 L28.4896851,24.4268996 L41.2281347,15.1135465 Z" id="Fill-1" fill="#FFFFFF" mask="url(#mask-2)"></path>
            </g>
            <path d="M51.5511438,16.3064485 L51.5511438,22.090116 C52.6479335,22.090116 53.730702,22.1567839 54.8009542,22.0685814 C55.6258035,22.0005374 56.2341127,21.4835685 56.5783471,20.6954557 C56.9566424,19.8296669 56.9772294,18.9391098 56.7241662,18.0482087 C56.446207,17.0698618 55.7924832,16.4117825 54.7808459,16.3264696 C53.7198955,16.2368222 52.6456764,16.3064485 51.5511438,16.3064485 L51.5511438,16.3064485 Z M46.2360641,11.6983797 C49.2322641,11.6987925 52.2283957,11.6922565 55.2244589,11.7020262 C57.1319399,11.7082871 58.8245908,12.2959832 60.1944151,13.6739937 C61.3205464,14.8069359 61.9301552,16.2075818 62.1566809,17.7719048 C62.3605678,19.1794309 62.2992171,20.5819344 61.833444,21.9407495 C60.9169448,24.6141409 59.0929746,26.2532503 56.2858881,26.609363 C55.0398595,26.767536 53.763395,26.6829798 52.500678,26.7059593 C52.1937192,26.7114634 51.8865552,26.7067849 51.5353445,26.7067849 L51.5353445,33.4394213 L46.2360641,33.4394213 L46.2360641,11.6983797 Z" id="Fill-4" fill="#FFFFFF"></path>
            <path d="M101.799764,20.0018683 C101.903178,24.541962 101.300683,28.9628927 101.123744,33.4214574 L95.7865039,33.4214574 C96.3796977,26.1845114 96.9713184,18.9655912 97.5649227,11.7238979 L103.33921,11.7238979 C104.758484,15.9390456 106.187402,20.1832959 107.611258,24.4120661 C107.738474,23.9778645 107.865142,23.4868334 108.025598,23.0072921 C109.072049,19.880435 110.125476,16.7560547 111.177603,13.6311239 C111.370615,13.0580136 111.559455,12.4833208 111.771481,11.9172969 C111.806705,11.8233839 111.951087,11.7093122 112.045678,11.7086242 C113.846326,11.6967904 115.647041,11.7004369 117.447689,11.7018817 C117.480108,11.7019505 117.512459,11.7159859 117.580444,11.7317412 C118.162148,18.9471526 118.744398,26.1684808 119.328632,33.414371 L114.03968,33.414371 C113.891877,31.1848822 113.753103,28.958971 113.59422,26.7345735 C113.436021,24.5193953 113.238769,22.3064875 113.30306,20.0666098 C113.225637,20.2944092 113.150128,20.5228965 113.070379,20.7498702 C112.022629,23.731145 110.972622,26.7115253 109.930275,29.6946576 C109.866667,29.8767044 109.783225,29.9392443 109.59076,29.9380747 C108.246037,29.929681 106.901108,29.9278234 105.556385,29.9394507 C105.340461,29.9413772 105.26673,29.8510418 105.203465,29.6692013 C104.107838,26.524112 103.00715,23.3808115 101.906735,20.2375109 C101.886353,20.1791679 101.85578,20.1243337 101.799764,20.0018683" id="Fill-6" fill="#FFFFFF"></path>
            <path d="M70.7047458,21.5244843 C71.6368391,21.5244843 72.5497818,21.5672784 73.4565004,21.5107929 C74.1644618,21.4666228 74.7982142,21.1753204 75.2401856,20.5673968 C75.6902962,19.9484652 75.7454229,19.2414685 75.7189539,18.50819 C75.6796265,17.4222387 75.155854,16.7237045 74.1133704,16.4423782 C72.9967461,16.1411685 71.8547471,16.2741603 70.7047458,16.2460208 L70.7047458,21.5244843 Z M77.9172524,24.4570481 C79.5836394,27.4583438 81.2275928,30.4189783 82.8946638,33.4215125 C82.7548634,33.4290806 82.6695059,33.4376118 82.5841484,33.4376806 C80.8287788,33.4385063 79.0734093,33.432727 77.3181766,33.4446295 C77.0746887,33.4462807 76.9600579,33.3596606 76.8517879,33.1512631 C75.6777798,30.8924652 74.4913237,28.6402033 73.3158109,26.3821623 C73.2096612,26.1783056 73.0928417,26.0903094 72.8515425,26.0969831 C72.1467957,26.1165913 71.4411597,26.1040008 70.6930501,26.1040008 L70.6930501,33.4183476 L65.413536,33.4183476 L65.413536,11.6993911 C65.525089,11.6993911 65.6442339,11.6993223 65.7633788,11.6993911 C68.3507792,11.6994599 70.9381795,11.6925798 73.5255114,11.703244 C74.5500754,11.7074408 75.5793587,11.7361995 76.5691779,12.0399549 C79.0126057,12.789608 80.4824926,14.4455736 80.9701523,16.959072 C81.278479,18.548232 81.1169973,20.1027853 80.4598537,21.592253 C79.9582414,22.7293921 79.2255208,23.6679033 78.1404268,24.3009391 C78.0539749,24.3514389 77.9756621,24.4159052 77.9172524,24.4570481 L77.9172524,24.4570481 Z" id="Fill-8" fill="#FFFFFF"></path>
            <polygon id="Fill-10" fill="#FFFFFF" points="123.742821 33.4164006 123.742821 11.7255148 137.253455 11.7255148 137.253455 16.2376753 129.050035 16.2376753 129.050035 20.2220652 135.60061 20.2220652 135.60061 24.7508067 129.046 24.7508067 129.046 28.8741053 137.666906 28.8741053 137.666906 33.4164006"></polygon>
            <mask id="mask-4" fill="white">
                <use xlink:href="#path-3"></use>
            </mask>
            <g id="Clip-13"></g>
            <polygon id="Fill-12" fill="#FFFFFF" mask="url(#mask-4)" points="86.0727478 33.4159121 91.3097199 33.4159121 91.3097199 11.7107845 86.0727478 11.7107845"></polygon>
            <path d="M143.426015,30.8250198 C143.838919,30.3125229 144.251891,29.800026 144.681961,29.2662697 C145.435406,29.9831736 146.282552,30.5492663 147.230992,30.9493428 C148.682344,31.5613944 150.178357,31.8128612 151.723274,31.3713667 C153.592043,30.8372663 154.706479,29.2682649 154.402051,27.3348258 C154.219435,26.1744321 153.574602,25.3416677 152.629993,24.7847255 C151.527526,24.1346958 150.357554,23.5964675 149.198729,23.0484006 C147.995379,22.479143 146.768365,21.9583213 145.726907,21.1015453 C144.668214,20.2305965 144.042806,19.1311602 143.901432,17.7403528 C143.631886,15.0858129 145.346423,12.9790647 147.308552,12.175747 C150.438876,10.8940575 153.358336,11.3796533 156.03212,13.437553 C156.068369,13.4654861 156.103046,13.4952768 156.163234,13.544607 C155.821872,14.1308583 155.487008,14.7058263 155.137986,15.3052185 C154.318677,14.6190685 153.439795,14.1065716 152.449155,13.8054307 C150.935085,13.3451536 149.455896,13.3755635 148.010905,14.0939123 C146.527613,14.8315253 145.717947,16.4205477 146.11895,17.9962228 C146.35936,18.9407885 147.003098,19.6349194 147.836086,20.0828812 C148.954968,20.6845439 150.115023,21.2106634 151.268102,21.7457269 C152.424191,22.2820977 153.58835,22.7956954 154.591438,23.6096772 C155.663058,24.4793877 156.339763,25.5726318 156.531885,26.9554584 C156.792746,28.8328936 156.31172,30.4791583 154.964945,31.8202228 C153.942502,32.8381989 152.66932,33.3526223 151.249157,33.5145105 C148.924258,33.779531 146.774247,33.2766662 144.818137,31.9889223 C144.32692,31.6656275 143.888642,31.261079 143.426015,30.8938205 L143.426015,30.8250198 Z" id="Fill-14" fill="#FFFFFF" mask="url(#mask-4)"></path>
            <path d="M198.410762,22.3251669 C198.469856,22.3371383 198.512876,22.3535129 198.555897,22.3534441 C200.276385,22.3516552 201.997283,22.3711258 203.717155,22.3360375 C204.668878,22.3166356 205.556104,22.028498 206.283353,21.3721387 C207.424737,20.3419849 207.717332,19.0001636 207.616039,17.5360145 C207.5367,16.3898626 207.155259,15.3741569 206.238965,14.6183805 C205.477928,13.9907111 204.572372,13.7876801 203.627831,13.7695167 C201.976217,13.7376619 200.323783,13.7508029 198.671554,13.7470876 C198.585102,13.7468812 198.498513,13.7651134 198.410762,13.7748831 L198.410762,22.3251669 Z M210.935271,33.2318081 C210.155562,33.2318081 209.449379,33.2400642 208.743743,33.2227264 C208.640945,33.220112 208.497725,33.1185621 208.44636,33.0229978 C206.954244,30.248951 205.463428,27.4741473 203.997235,24.686134 C203.811883,24.3337365 203.618871,24.2060422 203.22334,24.2129223 C201.753727,24.2386538 200.28343,24.2232424 198.813406,24.2232424 L198.397562,24.2232424 L198.397562,33.2159839 L196.322922,33.2159839 L196.322922,11.8488057 L196.669345,11.8488057 C198.629422,11.8488057 200.590115,11.819359 202.549371,11.8608459 C203.580365,11.8826557 204.629072,11.930197 205.633938,12.1399018 C207.377612,12.5037202 208.614134,13.6046012 209.265942,15.2602916 C210.03929,17.2246223 210.008102,19.2051899 209.002415,21.0978989 C208.381316,22.2666863 207.437663,23.1039916 206.178298,23.5527102 C206.042054,23.6012147 205.910666,23.6634106 205.804448,23.7077871 C207.510436,26.8744799 209.206917,30.0234909 210.935271,33.2318081 L210.935271,33.2318081 Z" id="Fill-15" fill="#FFFFFF" mask="url(#mask-4)"></path>
            <path d="M187.521452,24.5772499 C186.297242,21.0800382 185.082949,17.6111037 183.879599,14.1737487 C182.945317,17.6783908 181.439454,21.0523803 180.267293,24.5772499 L187.521452,24.5772499 Z M188.195489,26.4314305 L179.628342,26.4314305 C179.327676,27.2773359 179.023384,28.133355 178.719161,28.9894429 C178.245454,30.3223201 177.775236,31.6565733 177.291543,32.9857353 C177.255088,33.0857716 177.124931,33.2181443 177.034923,33.2208275 C176.375317,33.2408485 175.714891,33.2316292 175.013016,33.2316292 C175.330645,32.3575843 175.636646,31.5129861 175.944289,30.6689384 C177.897663,25.3100468 179.850969,19.9511553 181.80537,14.5926077 C182.110277,13.7566097 182.414431,12.92013 182.737258,12.0910807 C182.777474,11.9876044 182.928218,11.8627998 183.03129,11.8594974 C183.691101,11.8386507 184.35187,11.8489021 185.03986,11.8489021 C187.635536,18.9627635 190.229639,26.0721529 192.841593,33.2305972 C192.112908,33.2305972 191.433604,33.2373397 190.754848,33.2205523 C190.686042,33.2188323 190.590493,33.0872164 190.557937,32.9973626 C189.769679,30.8197496 188.98833,28.6396598 188.195489,26.4314305 L188.195489,26.4314305 Z" id="Fill-16" fill="#FFFFFF" mask="url(#mask-4)"></path>
            <polygon id="Fill-17" fill="#FFFFFF" mask="url(#mask-4)" points="168.146769 33.2206142 166.076028 33.2206142 166.076028 13.7550204 158.426884 13.7550204 158.426884 11.8750395 175.750361 11.8750395 175.750361 13.7341049 168.146769 13.7341049"></polygon>
        </g>
    </g>
</svg>