<?xml version="1.0" encoding="UTF-8"?>
<svg width="258px" height="49px" viewBox="0 0 258 49" version="1.1" xmlns="http://www.w3.org/2000/svg" xmlns:xlink="http://www.w3.org/1999/xlink">
    <!-- Generator: Sketch 48.1 (47250) - http://www.bohemiancoding.com/sketch -->
    <title>logo_registration</title>
    <desc>Created with Sketch.</desc>
    <defs>
        <polygon id="path-1" points="4.17045499e-05 48.1605351 50.278213 48.1605351 50.278213 0.0598398844 4.17045499e-05 0.0598398844 4.17045499e-05 48.1605351"></polygon>
        <polygon id="path-3" points="0 48.1846154 257.238168 48.1846154 257.238168 0.0839033713 0 0.0839033713"></polygon>
    </defs>
    <g id="Page-1" stroke="none" stroke-width="1" fill="none" fill-rule="evenodd">
        <g id="logo_registration">
            <g id="Group-3" transform="translate(0.000000, 0.024080)">
                <mask id="mask-2" fill="white">
                    <use xlink:href="#path-1"></use>
                </mask>
                <g id="Clip-2"></g>
                <path d="M22.4945584,28.4564325 L29.141096,25.6518784 L22.4913889,22.8576444 L22.4945584,28.4564325 Z M25.139044,32.4152452 C21.4289238,32.4152452 18.4196903,29.3911999 18.4196903,25.6554862 C18.4196903,21.9191852 21.4289238,18.8952238 25.139044,18.8952238 C28.8535848,18.8952238 31.8627349,21.9191852 31.8627349,25.6554862 C31.8627349,29.3911999 28.8535848,32.4152452 25.139044,32.4152452 L25.139044,32.4152452 Z M50.278213,18.4311543 L31.0736014,18.4311543 L25.139044,0.0598398844 L19.2048201,18.4311543 L4.17045499e-05,18.4311543 L15.5386566,29.7889019 L9.60443274,48.1605519 L25.139044,36.8038111 L40.6777422,48.1605519 L34.7435184,29.7889019 L50.278213,18.4311543 Z" id="Fill-1" fill="#FFFFFF" mask="url(#mask-2)"></path>
            </g>
            <path d="M62.8672486,19.8859129 L62.8672486,26.9391659 C64.2047969,26.9391659 65.5252464,27.0204682 66.8304319,26.9129041 C67.8363457,26.8299237 68.5781862,26.1994737 68.9979842,25.2383606 C69.45932,24.1825206 69.4844261,23.0964754 69.1758124,22.0100106 C68.8368378,20.8169047 68.0396137,20.0143689 66.8059097,19.9103287 C65.5120677,19.8010026 64.2020444,19.8859129 62.8672486,19.8859129 L62.8672486,19.8859129 Z M56.385444,14.2663168 C60.0393464,14.2668202 63.6931655,14.2588494 67.3469011,14.2707636 C69.6730975,14.2783988 71.7373059,14.9951014 73.4078233,16.6756021 C74.7811542,18.0572389 75.5245795,19.7653437 75.8008304,21.6730547 C76.0494729,23.3895498 75.974655,25.0999201 75.406639,26.7570116 C74.2889571,30.0172449 72.0646032,32.0161589 68.6413269,32.4504427 C67.1217799,32.6433366 65.5651159,32.5402193 64.0252171,32.568243 C63.6508771,32.5749553 63.2762868,32.5692499 62.8479811,32.5692499 L62.8479811,40.7797821 L56.385444,40.7797821 L56.385444,14.2663168 Z" id="Fill-4" fill="#FFFFFF"></path>
            <path d="M124.146054,24.3925223 C124.272169,29.9292219 123.537418,35.3206008 123.321639,40.7578749 L116.81281,40.7578749 C117.536217,31.932331 118.257705,23.1287698 118.981613,14.2974365 L126.023426,14.2974365 C127.754248,19.4378605 129.496831,24.6137755 131.233242,29.7708123 C131.388383,29.2412982 131.542857,28.6424798 131.738534,28.0576733 C133.014694,24.2444329 134.299361,20.434213 135.582443,16.6233219 C135.817823,15.9244068 136.048116,15.2235619 136.306684,14.5332889 C136.34964,14.4187608 136.525716,14.279649 136.641071,14.27881 C138.836982,14.2643786 141.032977,14.2688255 143.228889,14.2705874 C143.268424,14.2706713 143.307877,14.2877876 143.390786,14.3070015 C144.10018,23.1062837 144.810242,31.9127815 145.522722,40.7492329 L139.07278,40.7492329 C138.892533,38.0303441 138.723296,35.3158183 138.529536,32.6031385 C138.336611,29.9017016 138.096059,27.2030336 138.174464,24.4714754 C138.080045,24.7492795 137.987961,25.0279226 137.890706,25.3047198 C136.612962,28.9404207 135.332466,32.5750308 134.061311,36.2129971 C133.983741,36.4350054 133.881981,36.5112736 133.647268,36.5098472 C132.007362,36.499611 130.367205,36.4973456 128.727299,36.5115253 C128.463977,36.5138746 128.374062,36.4037095 128.296908,36.1819529 C126.960778,32.346478 125.618475,28.5131847 124.276506,24.6798914 C124.25165,24.6087413 124.214366,24.5418703 124.146054,24.3925223" id="Fill-6" fill="#FFFFFF"></path>
            <path d="M86.2252997,26.2493711 C87.3619989,26.2493711 88.4753436,26.301559 89.581098,26.2326743 C90.4444656,26.1788083 91.2173343,25.8235615 91.756324,25.0821913 C92.3052392,24.3273965 92.372467,23.4652055 92.3401877,22.5709634 C92.2922274,21.2466326 91.6534805,20.3947616 90.382159,20.0516807 C89.0204221,19.6843518 87.6277403,19.846537 86.2252997,19.8122205 L86.2252997,26.2493711 Z M95.0210395,29.8256684 C97.0532188,33.4857851 99.05804,37.096315 101.091053,40.757942 C100.920565,40.7671714 100.816471,40.7775754 100.712376,40.7776593 C98.5716815,40.7786662 96.430987,40.7716183 94.2904592,40.7861336 C93.9935228,40.7881473 93.8537292,40.6825129 93.7216926,40.4283696 C92.2899754,37.673738 90.8430777,34.9270772 89.4095255,32.1733686 C89.2800746,31.9247629 89.1376119,31.8174505 88.8433445,31.8255891 C87.9838972,31.8495016 87.1233655,31.8341473 86.2110368,31.8341473 L86.2110368,40.7540825 L79.7726049,40.7540825 L79.7726049,14.2675501 C79.9086452,14.2675501 80.0539438,14.2674662 80.1992425,14.2675501 C83.3546087,14.267634 86.509975,14.2592437 89.6652578,14.2722487 C90.9147261,14.2773668 92.1699497,14.3124384 93.3770462,14.6828718 C96.3568363,15.597083 98.1493812,17.6165532 98.7440881,20.6817951 C99.1200963,22.6197951 98.9231675,24.5155918 98.1217728,26.3320159 C97.5100505,27.7187708 96.6164888,28.8632967 95.2932034,29.6352916 C95.1877743,29.6968767 95.0922709,29.7754942 95.0210395,29.8256684 L95.0210395,29.8256684 Z" id="Fill-8" fill="#FFFFFF"></path>
            <polygon id="Fill-10" fill="#FFFFFF" points="150.905879 40.751708 150.905879 14.2994082 167.382262 14.2994082 167.382262 19.802043 157.378091 19.802043 157.378091 24.6610551 165.366598 24.6610551 165.366598 30.1839106 157.37317 30.1839106 157.37317 35.2123235 167.88647 35.2123235 167.88647 40.751708"></polygon>
            <mask id="mask-4" fill="white">
                <use xlink:href="#path-3"></use>
            </mask>
            <g id="Clip-13"></g>
            <polygon id="Fill-12" fill="#FFFFFF" mask="url(#mask-4)" points="104.966766 40.7511123 111.353317 40.7511123 111.353317 14.2814445 104.966766 14.2814445"></polygon>
            <path d="M174.909775,37.5914875 C175.413316,36.9664913 175.91694,36.3414951 176.441416,35.6905728 C177.360251,36.5648459 178.393356,37.2552028 179.54999,37.7431009 C181.319931,38.4895053 183.144338,38.7961721 185.028383,38.2577642 C187.30737,37.6064223 188.666438,35.693006 188.295184,33.3351534 C188.072482,31.9200392 187.286101,30.9044727 186.134138,30.225275 C184.789666,29.4325559 183.36287,28.7761798 181.94967,28.1078056 C180.48217,27.4135891 178.985811,26.7784406 177.71574,25.7335919 C176.424651,24.6714591 175.661958,23.3306832 175.489552,21.6345766 C175.160836,18.3973328 177.251736,15.8281277 179.644576,14.8484719 C183.462044,13.285436 187.022361,13.877626 190.283073,16.3872597 C190.32728,16.4213245 190.369568,16.4576547 190.442968,16.5178134 C190.026673,17.232754 189.618302,17.9339345 189.192666,18.6649007 C188.193508,17.8281323 187.121701,17.2031361 185.913604,16.8358911 C184.067177,16.2745775 182.263288,16.3116628 180.501104,17.1876979 C178.692211,18.0872259 177.704814,20.0250582 178.193841,21.9466132 C178.487024,23.0985226 179.272071,23.9450237 180.28791,24.4913186 C181.6524,25.2250535 183.067102,25.8666626 184.473296,26.5191791 C185.88316,27.1732898 187.302866,27.7996285 188.526144,28.7922893 C189.832997,29.8529118 190.658247,31.1861364 190.892543,32.8725102 C191.210666,35.1620654 190.624049,37.1697053 188.981641,38.8051498 C187.734758,40.0465841 186.182098,40.6739296 184.450191,40.8713542 C181.614949,41.19455 178.992984,40.5813003 176.607484,39.0108809 C176.00844,38.6166189 175.473954,38.1232671 174.909775,37.6753909 L174.909775,37.5914875 Z" id="Fill-14" fill="#FFFFFF" mask="url(#mask-4)"></path>
            <path d="M241.964344,27.2258133 C242.036409,27.2404125 242.088874,27.2603815 242.141338,27.2602976 C244.239494,27.2581161 246.33815,27.2818608 248.435555,27.2390701 C249.596193,27.2154093 250.678176,26.864022 251.565065,26.0635838 C252.956996,24.8072987 253.31382,23.1709312 253.190291,21.3853836 C253.093537,19.9876373 252.628364,18.7489718 251.510932,17.8272933 C250.582839,17.0618428 249.478503,16.814244 248.326623,16.7920935 C246.31246,16.7532462 244.297296,16.7692718 242.282383,16.764741 C242.176954,16.7644893 242.071358,16.7867237 241.964344,16.798638 L241.964344,27.2258133 Z M257.238135,40.5265953 C256.287271,40.5265953 255.426072,40.5366637 254.56554,40.51552 C254.440177,40.5123317 254.265518,40.3884903 254.202878,40.2719485 C252.383225,36.8889646 250.565157,33.5050577 248.777116,30.1050414 C248.551077,29.6752884 248.315697,29.5195637 247.833342,29.527954 C246.04113,29.5593339 244.248085,29.5405395 242.455373,29.5405395 L241.948246,29.5405395 L241.948246,40.5072975 L239.418198,40.5072975 L239.418198,14.4497631 L239.840665,14.4497631 C242.231003,14.4497631 244.622091,14.4138524 247.011428,14.4644462 C248.268737,14.4910435 249.547649,14.5490208 250.773095,14.8047583 C252.899527,15.2484393 254.40748,16.5909771 255.202369,18.6101118 C256.145476,21.0056369 256.107441,23.4209633 254.880994,25.729145 C254.123556,27.1544955 252.97276,28.1755995 251.436948,28.7228173 C251.270798,28.7819692 251.110569,28.8578178 250.981034,28.9119355 C253.061508,32.773756 255.130387,36.6140133 257.238135,40.5265953 L257.238135,40.5265953 Z" id="Fill-15" fill="#FFFFFF" mask="url(#mask-4)"></path>
            <path d="M228.684698,29.972256 C227.191758,25.7073637 225.710913,21.4769557 224.243413,17.2850594 C223.104045,21.5590132 221.267627,25.6736345 219.838162,29.972256 L228.684698,29.972256 Z M229.506694,32.2334518 L219.058954,32.2334518 C218.692287,33.2650438 218.3212,34.3089695 217.950197,35.3529792 C217.372505,36.9784392 216.799068,38.6055772 216.209199,40.2265065 C216.164742,40.348502 216.006014,40.5099321 215.896248,40.5132043 C215.09185,40.5376202 214.286452,40.5263771 213.430508,40.5263771 C213.81786,39.4604687 214.191032,38.4304709 214.566206,37.4011443 C216.94837,30.8659108 219.33045,24.3306772 221.713866,17.7958631 C222.085703,16.7763532 222.456624,15.756256 222.850315,14.7452204 C222.899359,14.6190298 223.083193,14.466829 223.20889,14.4628017 C224.013538,14.437379 224.819353,14.4498806 225.658365,14.4498806 C228.823824,23.1253213 231.987364,31.7953084 235.172674,40.5251186 C234.284034,40.5251186 233.455615,40.5333411 232.627863,40.5128687 C232.543953,40.5107711 232.427431,40.3502639 232.387728,40.2406861 C231.426438,37.5850605 230.473573,34.9264144 229.506694,32.2334518 L229.506694,32.2334518 Z" id="Fill-16" fill="#FFFFFF" mask="url(#mask-4)"></path>
            <polygon id="Fill-17" fill="#FFFFFF" mask="url(#mask-4)" points="205.057035 40.5129442 202.531741 40.5129442 202.531741 16.7744151 193.203517 16.7744151 193.203517 14.4817554 214.329708 14.4817554 214.329708 16.7489084 205.057035 16.7489084"></polygon>
        </g>
    </g>
</svg>